<svg version="1.1" xmlns="http://www.w3.org/2000/svg" xmlns:xlink="http://www.w3.org/1999/xlink" width="418.18619" height="71.63155" viewBox="0,0,418.18619,71.63155"><g transform="translate(-353.31677,-216.19861)"><g stroke="none" stroke-miterlimit="10"><path d="M771.50296,276.55584c0,6.2261 -17.71068,11.27432 -39.54344,11.27432h-339.10392c-21.83735,0 -39.53884,-5.04953 -39.53884,-11.27432v-49.08422c0,-6.2261 17.70149,-11.27301 39.53884,-11.27301h339.09932c21.84654,0 39.54344,5.04691 39.54344,11.27301v49.08422z" fill="#545556"/><path d="M765.27015,227.1954v49.08291c0,3.74981 -11.1943,6.79997 -24.9719,6.79997h-354.98011c-13.76317,0 -24.96709,-3.05016 -24.96709,-6.79997v-49.08422c0,-3.74981 11.20392,-6.79997 24.96709,-6.79997h354.98011c13.7776,0 24.9719,3.05147 24.9719,6.80128z" fill="#d0d1d2"/></g></g></svg>